Coordinates
version=1
nRows=27
nColumns=12
inDegrees=yes

Units are S.I. units (second, meters, Newtons, ...)
Angles are in degrees

endheader
time	SC_y	SC_z	SC_x	AC_y	AC_z	AC_x	GH_y	GH_z	GH_yy	EL_x	PS_y
       0.0              -30.23           26.1          2.699          46.77         -13.12         -3.501          17.35          36.37         -176.7          16.23          8.704
  0.008349              -30.23          26.09          2.705          46.77         -13.12         -3.501          17.34          36.37         -176.6          16.23          8.717
    0.0167              -30.23          26.09          2.712          46.77         -13.12         -3.502          17.32          36.36         -176.6          16.23           8.73
   0.02505              -30.23          26.08          2.718          46.77         -13.12         -3.503           17.3          36.35         -176.6          16.23          8.744
    0.0334              -30.24          26.08          2.726          46.77         -13.12         -3.504          17.28          36.35         -176.5          16.23          8.759
   0.04174              -30.24          26.08          2.733          46.77         -13.12         -3.505          17.25          36.34         -176.5          16.23          8.776
   0.05009              -30.24          26.07          2.742          46.77         -13.12         -3.505          17.23          36.33         -176.4          16.23          8.793
   0.05844              -30.25          26.06           2.75          46.77         -13.12         -3.506           17.2          36.32         -176.4          16.22          8.811
   0.06679              -30.25          26.06           2.76          46.77         -13.12         -3.507          17.18          36.31         -176.3          16.22          8.831
   0.07514              -30.25          26.05           2.77          46.78         -13.12         -3.509          17.15           36.3         -176.2          16.22          8.852
   0.08349              -30.26          26.05          2.781          46.78         -13.12          -3.51          17.12          36.29         -176.2          16.22          8.875
   0.09184              -30.26          26.04          2.793          46.78         -13.11         -3.511          17.08          36.28         -176.1          16.22          8.899
    0.1002              -30.27          26.03          2.805          46.78         -13.11         -3.513          17.04          36.27         -176.0          16.21          8.926
    0.1085              -30.28          26.02          2.819          46.78         -13.11         -3.514          17.01          36.25         -175.9          16.21          8.954
    0.1169              -30.28          26.01          2.834          46.78         -13.11         -3.516          16.96          36.24         -175.9          16.21          8.985
    0.1252              -30.29           26.0           2.85          46.79         -13.11         -3.517          16.92          36.22         -175.8          16.21          9.019
    0.1336               -30.3          25.99          2.867          46.79         -13.11         -3.519          16.86          36.21         -175.7           16.2          9.055
    0.1419               -30.3          25.98          2.886          46.79         -13.11         -3.522          16.81          36.19         -175.5           16.2          9.094
    0.1503              -30.31          25.97          2.907          46.79          -13.1         -3.524          16.75          36.17         -175.4           16.2          9.138
    0.1586              -30.32          25.96           2.93           46.8          -13.1         -3.526          16.68          36.15         -175.3          16.19          9.185
     0.167              -30.33          25.94          2.954           46.8          -13.1         -3.529          16.61          36.12         -175.1          16.19          9.237
    0.1753              -30.34          25.92          2.982           46.8          -13.1         -3.532          16.53          36.09         -175.0          16.18          9.294
    0.1837              -30.36           25.9          3.012          46.81         -13.09         -3.536          16.44          36.07         -174.8          16.18          9.357
     0.192              -30.37          25.88          3.046          46.81         -13.09         -3.539          16.34          36.03         -174.6          16.17          9.427
    0.2004              -30.39          25.86          3.083          46.82         -13.09         -3.543          16.23           36.0         -174.4          16.16          9.505
    0.2087               -30.4          25.84          3.125          46.82         -13.08         -3.548          16.11          35.96         -174.1          16.16          9.592
    0.2171              -30.42          25.81          3.171          46.83         -13.08         -3.553          15.98          35.91         -173.8          16.15          9.689
